# xmcd CD database file
#
# Track frame offsets:
#	150
#	3436
#	21379
#	38260
#	49972
#	67313
#	78815
#	102914
#	116950
#	128253
#	137431
#	146634
#	172438
#	192694
#	216194
#	236541
#
# Disc length: 3296 seconds
#
# Revision: 0
# Processed by: cddbd v1.5.1PL0 Copyright (c) Steve Scherf et al.
# Submitted via: CDex 1.51
#
DISCID=e80cde10
DTITLE=Alexander Belkin - Real love
DYEAR=2000
DGENRE=Blues
TTITLE0=Intro
TTITLE1=Good morning Mr. Blues
TTITLE2=Wake up mama
TTITLE3=I'd better lie to you
TTITLE4=I want something
TTITLE5=Homeless boogie
TTITLE6=We've got a reason for the blues
TTITLE7=Can you help me, baby
TTITLE8=That girl is mine
TTITLE9=Stasys shuffle
TTITLE10=Drinkin' man rag
TTITLE11=Someday baby
TTITLE12=We've got a reason for the blues
TTITLE13=REAL LOVE
TTITLE14=Freight train boogie
TTITLE15=The longest mile
EXTD=YEAR: 2000
EXTT0=
EXTT1=
EXTT2=
EXTT3=
EXTT4=
EXTT5=
EXTT6=
EXTT7=
EXTT8=
EXTT9=
EXTT10=
EXTT11=
EXTT12=
EXTT13=
EXTT14=
EXTT15=
PLAYORDER=
